<svg width="20" height="23" viewBox="0 0 20 23" fill="none" xmlns="http://www.w3.org/2000/svg">
<path opacity="0.4" d="M0.25 8.39584H19.75V18.1458C19.75 20.5391 17.8099 22.4792 15.4167 22.4792H4.58333C2.1901 22.4792 0.25 20.5391 0.25 18.1458V8.39584Z" fill="#BF8C1C"/>
<path d="M15.4167 2.4375H4.58333C2.1901 2.4375 0.25 4.3776 0.25 6.77083V8.39583H19.75V6.77083C19.75 4.3776 17.8099 2.4375 15.4167 2.4375Z" fill="#412D2D"/>
<path opacity="0.4" fill-rule="evenodd" clip-rule="evenodd" d="M5.66675 0C6.11548 0 6.47925 0.363769 6.47925 0.8125V4.0625C6.47925 4.51123 6.11548 4.875 5.66675 4.875C5.21802 4.875 4.85425 4.51123 4.85425 4.0625V0.8125C4.85425 0.363769 5.21802 0 5.66675 0ZM14.3334 0C14.7821 0 15.1459 0.363769 15.1459 0.8125V4.0625C15.1459 4.51123 14.7821 4.875 14.3334 4.875C13.8847 4.875 13.5209 4.51123 13.5209 4.0625V0.8125C13.5209 0.363769 13.8847 0 14.3334 0Z" fill="black"/>
</svg>
