<svg width="20" height="23" viewBox="0 0 20 23" fill="none" xmlns="http://www.w3.org/2000/svg">
<path d="M10 22.5C11.7313 22.5 13.2041 21.4565 13.75 20H6.25C6.79586 21.4565 8.26871 22.5 10 22.5Z" fill="#AF9F45"/>
<path fill-rule="evenodd" clip-rule="evenodd" d="M17.6765 8.54357C17.2244 8.67789 16.7456 8.75 16.25 8.75C13.4886 8.75 11.25 6.51142 11.25 3.75C11.25 3.3624 11.2941 2.98509 11.3776 2.62283C10.9294 2.54204 10.469 2.5 10 2.5C5.96368 2.5 2.56728 5.61357 2.09955 9.74254L1.66845 13.5481C1.56133 14.4937 1.17808 15.3836 0.569366 16.1001C-0.722392 17.6205 0.326016 20 2.28767 20H17.7123C19.674 20 20.7224 17.6205 19.4306 16.1001C18.8219 15.3836 18.4387 14.4937 18.3316 13.5481L17.9005 9.74254C17.854 9.33217 17.7786 8.93183 17.6765 8.54357Z" fill="#FFD903"/>
<circle cx="16.25" cy="3.75" r="3.75" fill="#FF3030"/>
</svg>
