<svg width="15" height="23" viewBox="0 0 15 23" fill="none" xmlns="http://www.w3.org/2000/svg">
<g clip-path="url(#clip0_337_3025)">
<path d="M14.9997 15.3951C15.0091 19.4272 11.0172 21.5607 7.22585 21.3376C2.54053 21.0613 0.344731 18.0694 0.0300452 14.5887C-0.226365 11.7479 1.17457 9.01581 2.64077 7.4691C2.58949 8.08778 2.6431 8.74543 2.97876 9.26494C3.31326 9.78563 3.99042 10.115 4.56151 9.89071C5.28646 9.60616 5.48459 8.62854 5.29578 7.86463C5.10697 7.10072 4.65242 6.42418 4.47061 5.65909C4.17457 4.41581 4.65126 3.07572 5.4776 2.10755C6.30394 1.14055 7.4403 0.497074 8.60464 7.13829e-08C7.90534 0.831212 7.8121 2.12998 8.38669 3.05447C8.93564 3.93763 9.94147 4.39692 10.7189 5.08054C12.0277 6.23054 12.6583 8.24481 11.9182 9.83167C11.7177 10.2603 11.4321 10.6416 11.2317 11.0702C11.0312 11.4988 10.9228 12.0053 11.1023 12.4434C11.2818 12.8814 11.8284 13.1766 12.241 12.9523C12.7177 12.6937 12.7247 11.9203 12.452 11.1718C14.072 11.7869 14.9974 13.6253 15.0009 15.3939L14.9997 15.3951Z" fill="#E82D2D"/>
<path d="M12.2507 18.3787C11.6703 19.5441 10.626 20.4426 9.43373 20.9361C9.30786 20.9881 9.18082 21.0365 9.05145 21.079C7.75308 21.517 6.33 21.399 5.13769 20.7165C4.24725 20.2065 3.4279 19.3635 2.90692 17.9313C2.36613 16.4448 2.67499 14.3526 3.50249 13.0845C3.50832 13.7162 4.17849 14.2026 4.79853 14.14C5.41974 14.0775 5.93606 13.5851 6.19364 13.0089C6.45005 12.4328 6.48851 11.7834 6.48385 11.1517C6.47919 10.52 6.4349 9.88244 6.54329 9.26022C6.65168 8.63799 7.02581 7.65683 7.65051 7.09836C7.07009 8.24718 7.54329 9.37711 8.13303 10.3287C8.72277 11.2804 9.48268 11.6133 9.88245 13.2415C10.1633 14.3844 9.59573 15.479 10.7298 15.7848C11.6039 16.0209 12.2845 14.9866 12.2414 14.3833C12.7729 15.5722 12.8288 17.2099 12.2484 18.3752L12.2507 18.3787Z" fill="#FF884D"/>
<path d="M9.69347 20.2419C9.17599 20.9657 8.48485 21.3683 7.31002 21.321C6.1352 21.2738 5.37412 20.5784 4.87063 19.6161C4.42424 18.7625 4.36247 17.688 4.57226 16.773C4.96503 17.5275 5.4965 17.8344 6.22261 17.9336C5.52564 16.6856 6.10839 14.4541 7.70862 13.2722C7.38928 13.7764 7.45454 14.4163 7.71795 14.9453C7.98135 15.4742 8.41841 15.9158 8.84615 16.3527C9.27273 16.7883 9.70396 17.2382 9.94872 17.7742C10.3112 18.5688 10.211 19.5181 9.69347 20.2419Z" fill="#FFCF57"/>
</g>
<defs>
<clipPath id="clip0_337_3025">
<rect width="15" height="23" fill="white"/>
</clipPath>
</defs>
</svg>
